<svg width="50" height="52" viewBox="0 0 50 52" fill="none" xmlns="http://www.w3.org/2000/svg">
<rect y="2" width="50" height="50" rx="5" fill="#008D0E"/>
<path d="M8.878 14.388L12.944 21H10.987L7.814 15.832L4.793 21H2.874L6.921 14.388L2.855 7.757H4.793L7.985 12.944L11.025 7.757H12.963L8.878 14.388Z" fill="white"/>
<rect x="14" y="26" width="34" height="24" rx="5" fill="white"/>
<path d="M46.0607 39.0607C46.6464 38.4749 46.6464 37.5251 46.0607 36.9393L36.5147 27.3934C35.9289 26.8076 34.9792 26.8076 34.3934 27.3934C33.8076 27.9792 33.8076 28.9289 34.3934 29.5147L42.8787 38L34.3934 46.4853C33.8076 47.0711 33.8076 48.0208 34.3934 48.6066C34.9792 49.1924 35.9289 49.1924 36.5147 48.6066L46.0607 39.0607ZM17 39.5H45V36.5H17V39.5Z" fill="#008D0E"/>
</svg>
