<svg width="39" height="26" viewBox="0 0 39 26" fill="none" xmlns="http://www.w3.org/2000/svg">
<path d="M16.115 19.575H5.475L3.515 25H0.155L8.975 0.744999H12.65L21.435 25H18.075L16.115 19.575ZM15.205 16.985L10.795 4.665L6.385 16.985H15.205ZM23.702 17.824C23.702 16.368 23.9967 15.094 24.586 14.002C25.1753 12.8927 25.9813 12.0347 27.004 11.428C28.044 10.8213 29.1967 10.518 30.462 10.518C31.71 10.518 32.7933 10.7867 33.712 11.324C34.6307 11.8613 35.3153 12.5373 35.766 13.352V10.752H38.158V25H35.766V22.348C35.298 23.18 34.596 23.8733 33.66 24.428C32.7413 24.9653 31.6667 25.234 30.436 25.234C29.1707 25.234 28.0267 24.922 27.004 24.298C25.9813 23.674 25.1753 22.7987 24.586 21.672C23.9967 20.5453 23.702 19.2627 23.702 17.824ZM35.766 17.85C35.766 16.7753 35.5493 15.8393 35.116 15.042C34.6827 14.2447 34.0933 13.638 33.348 13.222C32.62 12.7887 31.814 12.572 30.93 12.572C30.046 12.572 29.24 12.78 28.512 13.196C27.784 13.612 27.2033 14.2187 26.77 15.016C26.3367 15.8133 26.12 16.7493 26.12 17.824C26.12 18.916 26.3367 19.8693 26.77 20.684C27.2033 21.4813 27.784 22.0967 28.512 22.53C29.24 22.946 30.046 23.154 30.93 23.154C31.814 23.154 32.62 22.946 33.348 22.53C34.0933 22.0967 34.6827 21.4813 35.116 20.684C35.5493 19.8693 35.766 18.9247 35.766 17.85Z" fill="black"/>
</svg>
